<?xml version="1.0" encoding="UTF-8" standalone="no"?><svg xmlns="http://www.w3.org/2000/svg" xmlns:xlink="http://www.w3.org/1999/xlink" contentStyleType="text/css" height="1196px" preserveAspectRatio="none" style="width:558px;height:1196px;background:#FFFFFF;" version="1.1" viewBox="0 0 558 1196" width="558px" zoomAndPan="magnify"><defs/><g><!--MD5=[8d95b8d23e0fc13c4452cf955652dabd]
cluster Acesso--><g id="cluster_Acesso"><path d="M426.5,467.38 L484.5,467.38 A3.75,3.75 0 0 1 487,469.88 L494,489.6769 L548.5,489.6769 A2.5,2.5 0 0 1 551,492.1769 L551,609.88 A2.5,2.5 0 0 1 548.5,612.38 L426.5,612.38 A2.5,2.5 0 0 1 424,609.88 L424,469.88 A2.5,2.5 0 0 1 426.5,467.38 " fill="none" style="stroke:#000000;stroke-width:1.5;"/><line style="stroke:#000000;stroke-width:1.5;" x1="424" x2="494" y1="489.6769" y2="489.6769"/><text fill="#000000" font-family="sans-serif" font-size="14" font-weight="bold" lengthAdjust="spacing" textLength="57" x="428" y="482.3751">Acesso</text></g><!--MD5=[6a8745c9dc38cdf83476d8ef0e2c1db5]
cluster UE--><g id="cluster_UE"><path d="M149,132.38 L170,132.38 A3.75,3.75 0 0 1 172.5,134.88 L179.5,154.6769 L363,154.6769 A2.5,2.5 0 0 1 365.5,157.1769 L365.5,493.88 A2.5,2.5 0 0 1 363,496.38 L149,496.38 A2.5,2.5 0 0 1 146.5,493.88 L146.5,134.88 A2.5,2.5 0 0 1 149,132.38 " fill="none" style="stroke:#000000;stroke-width:1.5;"/><line style="stroke:#000000;stroke-width:1.5;" x1="146.5" x2="179.5" y1="154.6769" y2="154.6769"/><text fill="#000000" font-family="sans-serif" font-size="14" font-weight="bold" lengthAdjust="spacing" textLength="20" x="150.5" y="147.3751">UE</text></g><!--MD5=[07d646397eca53d2b1a0250d70f3775a]
cluster Business Inteligence--><g id="cluster_Business Inteligence"><path d="M118.5,520.38 L285.5,520.38 A3.75,3.75 0 0 1 288,522.88 L295,542.6769 L393.5,542.6769 A2.5,2.5 0 0 1 396,545.1769 L396,798.88 A2.5,2.5 0 0 1 393.5,801.38 L118.5,801.38 A2.5,2.5 0 0 1 116,798.88 L116,522.88 A2.5,2.5 0 0 1 118.5,520.38 " fill="none" style="stroke:#000000;stroke-width:1.5;"/><line style="stroke:#000000;stroke-width:1.5;" x1="116" x2="295" y1="542.6769" y2="542.6769"/><text fill="#000000" font-family="sans-serif" font-size="14" font-weight="bold" lengthAdjust="spacing" textLength="166" x="120" y="535.3751">Business Inteligence</text></g><!--MD5=[aa21c63c84d382745d88176a7afeaae4]
cluster Banco de dados de atividades--><g id="cluster_Banco de dados de atividades"><path d="M130,825.38 L373,825.38 A3.75,3.75 0 0 1 375.5,827.88 L382.5,847.6769 L383,847.6769 A2.5,2.5 0 0 1 385.5,850.1769 L385.5,1186.88 A2.5,2.5 0 0 1 383,1189.38 L130,1189.38 A2.5,2.5 0 0 1 127.5,1186.88 L127.5,827.88 A2.5,2.5 0 0 1 130,825.38 " fill="none" style="stroke:#000000;stroke-width:1.5;"/><line style="stroke:#000000;stroke-width:1.5;" x1="127.5" x2="382.5" y1="847.6769" y2="847.6769"/><text fill="#000000" font-family="sans-serif" font-size="14" font-weight="bold" lengthAdjust="spacing" textLength="242" x="131.5" y="840.3751">Banco de dados de atividades</text></g><g id="elem_login"><ellipse cx="487.6869" cy="581.4434" fill="#F1F1F1" rx="39.1869" ry="14.5634" style="stroke:#181818;stroke-width:0.5;"/><text fill="#000000" font-family="sans-serif" font-size="14" lengthAdjust="spacing" textLength="39" x="466.0666" y="584.9676">Login</text></g><g id="elem_logout"><ellipse cx="487.3761" cy="517.5444" fill="#F1F1F1" rx="47.3761" ry="14.6644" style="stroke:#181818;stroke-width:0.5;"/><text fill="#000000" font-family="sans-serif" font-size="14" lengthAdjust="spacing" textLength="50" x="459.3761" y="521.2919">Logout</text></g><g id="elem_dados_ge"><ellipse cx="256.0097" cy="280.4273" fill="#F1F1F1" rx="93.5097" ry="26.0473" style="stroke:#181818;stroke-width:0.5;"/><text fill="#000000" font-family="sans-serif" font-size="14" lengthAdjust="spacing" textLength="66" x="223.0097" y="275.1255">Dados do</text><text fill="#000000" font-family="sans-serif" font-size="14" lengthAdjust="spacing" textLength="116" x="198.0097" y="291.4224">Grupo Escoteiro</text></g><g id="elem_dados_secao"><ellipse cx="255.9472" cy="367.4273" fill="#F1F1F1" rx="57.4472" ry="26.0473" style="stroke:#181818;stroke-width:0.5;"/><text fill="#000000" font-family="sans-serif" font-size="14" lengthAdjust="spacing" textLength="65" x="223.4472" y="362.1255">Dados da</text><text fill="#000000" font-family="sans-serif" font-size="14" lengthAdjust="spacing" textLength="41" x="235.4472" y="378.4224">seção</text></g><g id="elem_dados_subsecao"><ellipse cx="256.1543" cy="454.4273" fill="#F1F1F1" rx="58.1543" ry="26.0473" style="stroke:#181818;stroke-width:0.5;"/><text fill="#000000" font-family="sans-serif" font-size="14" lengthAdjust="spacing" textLength="65" x="223.6543" y="449.1255">Dados da</text><text fill="#000000" font-family="sans-serif" font-size="14" lengthAdjust="spacing" textLength="66" x="223.1543" y="465.4224">subseção</text></g><g id="elem_dados_jovem"><ellipse cx="256.1543" cy="193.4273" fill="#F1F1F1" rx="58.1543" ry="26.0473" style="stroke:#181818;stroke-width:0.5;"/><text fill="#000000" font-family="sans-serif" font-size="14" lengthAdjust="spacing" textLength="66" x="223.1543" y="188.1255">Dados do</text><text fill="#000000" font-family="sans-serif" font-size="14" lengthAdjust="spacing" textLength="44" x="234.1543" y="204.4224">jovem</text></g><g id="elem_timeline_secao"><ellipse cx="255.9093" cy="669.5619" fill="#F1F1F1" rx="123.9093" ry="27.1819" style="stroke:#181818;stroke-width:0.5;"/><text fill="#000000" font-family="sans-serif" font-size="14" lengthAdjust="spacing" textLength="164" x="170.9093" y="665.161">Timeline de conquistas</text><text fill="#000000" font-family="sans-serif" font-size="14" lengthAdjust="spacing" textLength="62" x="221.9093" y="681.4579">da seção</text></g><g id="elem_timeline_jovem"><ellipse cx="255.9093" cy="758.5619" fill="#F1F1F1" rx="123.9093" ry="27.1819" style="stroke:#181818;stroke-width:0.5;"/><text fill="#000000" font-family="sans-serif" font-size="14" lengthAdjust="spacing" textLength="164" x="170.9093" y="754.161">Timeline de conquistas</text><text fill="#000000" font-family="sans-serif" font-size="14" lengthAdjust="spacing" textLength="66" x="219.9093" y="770.4579">do jovem</text></g><g id="elem_analise_historica_jovem"><ellipse cx="255.9609" cy="581.5619" fill="#F1F1F1" rx="95.4609" ry="26.1819" style="stroke:#181818;stroke-width:0.5;"/><text fill="#000000" font-family="sans-serif" font-size="14" lengthAdjust="spacing" textLength="118" x="193.9609" y="577.161">Análise Histórica</text><text fill="#000000" font-family="sans-serif" font-size="14" lengthAdjust="spacing" textLength="66" x="219.9609" y="593.4579">do jovem</text></g><g id="elem_cadastro_atividades"><ellipse cx="255.7983" cy="973.4279" fill="#F1F1F1" rx="72.2983" ry="26.0479" style="stroke:#181818;stroke-width:0.5;"/><text fill="#000000" font-family="sans-serif" font-size="14" lengthAdjust="spacing" textLength="86" x="212.4371" y="968.2463">Cadastro de</text><text fill="#000000" font-family="sans-serif" font-size="14" lengthAdjust="spacing" textLength="73" x="218.9371" y="984.5432">atividades</text></g><g id="elem_cadastro_encontros"><ellipse cx="255.7983" cy="1060.4279" fill="#F1F1F1" rx="72.2983" ry="26.0479" style="stroke:#181818;stroke-width:0.5;"/><text fill="#000000" font-family="sans-serif" font-size="14" lengthAdjust="spacing" textLength="86" x="212.4371" y="1055.2463">Cadastro de</text><text fill="#000000" font-family="sans-serif" font-size="14" lengthAdjust="spacing" textLength="73" x="218.9371" y="1071.5432">encontros</text></g><g id="elem_ferramenta_busca"><ellipse cx="256.2406" cy="1147.5107" fill="#F1F1F1" rx="86.7406" ry="26.1307" style="stroke:#181818;stroke-width:0.5;"/><text fill="#000000" font-family="sans-serif" font-size="14" lengthAdjust="spacing" textLength="106" x="200.2406" y="1143.1098">Ferramenta de</text><text fill="#000000" font-family="sans-serif" font-size="14" lengthAdjust="spacing" textLength="41" x="232.7406" y="1159.4067">busca</text></g><g id="elem_sistema_pontuacao"><ellipse cx="255.8823" cy="886.4273" fill="#F1F1F1" rx="70.8823" ry="26.0473" style="stroke:#181818;stroke-width:0.5;"/><text fill="#000000" font-family="sans-serif" font-size="14" lengthAdjust="spacing" textLength="80" x="213.8823" y="881.1255">Sistema de</text><text fill="#000000" font-family="sans-serif" font-size="14" lengthAdjust="spacing" textLength="76" x="217.8823" y="897.4224">pontuação</text></g><!--MD5=[5295c0bdf0467b1c5e753e12badf3c72]
entity escotista--><g id="elem_escotista"><ellipse cx="39" cy="551.88" fill="#F1F1F1" rx="8" ry="8" style="stroke:#181818;stroke-width:0.5;"/><path d="M39,559.88 L39,586.88 M26,567.88 L52,567.88 M39,586.88 L26,601.88 M39,586.88 L52,601.88 " fill="none" style="stroke:#181818;stroke-width:0.5;"/><text fill="#000000" font-family="sans-serif" font-size="14" lengthAdjust="spacing" textLength="66" x="6" y="616.3751">Escotista</text></g><!--MD5=[b542d946444dc15ae6e5d0296693e652]
link dados_ge to login--><g id="link_dados_ge_login"><path d="M345.45,288.034 C367.816,294.343 389.559,305.138 404,323.38 C435.217,362.812 387.649,507.84 416,549.38 C420.749,556.339 427.399,561.808 434.734,566.101 " fill="none" id="dados_ge-to-login" style="stroke:#181818;stroke-width:1.0;"/><polygon fill="none" points="437.705,559.761,453.097,574.324,431.983,572.538,437.705,559.761" style="stroke:#181818;stroke-width:1.0;"/></g><!--MD5=[4eae0a4e6991c4ce7e5a34839fc71cce]
link dados_secao to login--><g id="link_dados_secao_login"><path d="M313.593,369.034 C345.111,373.13 382.267,383.842 404,410.38 C423.643,434.367 398.102,524.064 416,549.38 C420.864,556.259 427.572,561.688 434.93,565.965 " fill="none" id="dados_secao-to-login" style="stroke:#181818;stroke-width:1.0;"/><polygon fill="none" points="437.9,559.625,453.29,574.19,432.176,572.401,437.9,559.625" style="stroke:#181818;stroke-width:1.0;"/></g><!--MD5=[772267c9266478d4b6027c09c386ad0a]
link dados_subsecao to login--><g id="link_dados_subsecao_login"><path d="M294.621,473.829 C324.978,490.062 368.347,514.488 404,539.38 C409.692,543.354 410.12,545.69 416,549.38 C423.792,554.27 432.456,558.832 440.969,562.892 " fill="none" id="dados_subsecao-to-login" style="stroke:#181818;stroke-width:1.0;"/><polygon fill="none" points="444.087,556.618,459.517,571.141,438.398,569.41,444.087,556.618" style="stroke:#181818;stroke-width:1.0;"/></g><!--MD5=[cde4db59cc8baeaaf423a8d8d397f96e]
link dados_jovem to login--><g id="link_dados_jovem_login"><path d="M314.066,194.66 C345.746,198.62 382.908,209.33 404,236.38 C425.401,263.826 396.593,520.49 416,549.38 C420.698,556.374 427.322,561.861 434.647,566.16 " fill="none" id="dados_jovem-to-login" style="stroke:#181818;stroke-width:1.0;"/><polygon fill="none" points="437.617,559.821,453.01,574.383,431.896,572.598,437.617,559.821" style="stroke:#181818;stroke-width:1.0;"/></g><!--MD5=[eb12257e978ce6e38ad347ea691ddaa6]
link timeline_secao to login--><g id="link_timeline_secao_login"><path d="M334.99,648.41 C357.554,641.566 382.019,633.384 404,624.38 C418.73,618.346 434.346,610.585 447.983,603.321 " fill="none" id="timeline_secao-to-login" style="stroke:#181818;stroke-width:1.0;"/><polygon fill="none" points="444.744,597.114,465.643,593.615,451.487,609.383,444.744,597.114" style="stroke:#181818;stroke-width:1.0;"/></g><!--MD5=[3d96510650b87b9986ca4ea1a8f46df3]
link timeline_jovem to login--><g id="link_timeline_jovem_login"><path d="M350.496,740.721 C369.44,734.239 388.332,725.405 404,713.38 C437.282,687.835 460.538,644.727 473.688,614.752 " fill="none" id="timeline_jovem-to-login" style="stroke:#181818;stroke-width:1.0;"/><polygon fill="none" points="467.275,611.942,481.327,596.081,480.233,617.243,467.275,611.942" style="stroke:#181818;stroke-width:1.0;"/></g><!--MD5=[14bd1d52298c62fc8c80e11f04b1b6b6]
link analise_historica_jovem to login--><g id="link_analise_historica_jovem_login"><path d="M351.671,581.38 C377.668,581.38 405.084,581.38 428.356,581.38 " fill="none" id="analise_historica_jovem-to-login" style="stroke:#181818;stroke-width:1.0;"/><polygon fill="none" points="428.404,574.38,448.404,581.38,428.404,588.38,428.404,574.38" style="stroke:#181818;stroke-width:1.0;"/></g><!--MD5=[8d2003faf18d69d1049632b936ebe036]
link cadastro_atividades to login--><g id="link_cadastro_atividades_login"><path d="M326.656,967.488 C354.193,961.713 383.981,950.597 404,929.38 C446.907,883.907 473.361,694.626 482.696,615.931 " fill="none" id="cadastro_atividades-to-login" style="stroke:#181818;stroke-width:1.0;"/><polygon fill="none" points="475.758,614.99,484.98,595.912,489.668,616.577,475.758,614.99" style="stroke:#181818;stroke-width:1.0;"/></g><!--MD5=[0d9f93c43dbc307ddf5445bf99944c83]
link cadastro_encontros to login--><g id="link_cadastro_encontros_login"><path d="M327.133,1054.929 C354.749,1049.226 384.467,1038.045 404,1016.38 C457.325,957.235 478.375,708.863 484.463,616.324 " fill="none" id="cadastro_encontros-to-login" style="stroke:#181818;stroke-width:1.0;"/><polygon fill="none" points="477.489,615.675,485.711,596.146,491.463,616.54,477.489,615.675" style="stroke:#181818;stroke-width:1.0;"/></g><!--MD5=[19c57395f1b2830051e1b718d1536b2e]
link ferramenta_busca to login--><g id="link_ferramenta_busca_login"><path d="M339.266,1140.0636 C363.29,1133.9324 387.494,1123.1492 404,1104.38 C468.337,1031.223 482.692,720.652 485.728,615.981 " fill="none" id="ferramenta_busca-to-login" style="stroke:#181818;stroke-width:1.0;"/><polygon fill="none" points="478.731,615.772,486.239,595.957,492.726,616.129,478.731,615.772" style="stroke:#181818;stroke-width:1.0;"/></g><!--MD5=[425e1a496b183326f63666041d286380]
link sistema_pontuacao to login--><g id="link_sistema_pontuacao_login"><path d="M306.539,868.028 C338.222,854.053 378.09,831.976 404,801.38 C450.562,746.397 472.146,662.557 481.054,615.854 " fill="none" id="sistema_pontuacao-to-login" style="stroke:#181818;stroke-width:1.0;"/><polygon fill="none" points="474.192,614.452,484.503,595.94,487.987,616.841,474.192,614.452" style="stroke:#181818;stroke-width:1.0;"/></g><!--MD5=[c265cb76565636a54268ba80a1272cda]
link escotista to login--><g id="link_escotista_login"><path d="M40.0045,543.323 C40.9061,447.766 49.0255,201.76 108,151.38 C208.025,65.93 309.585,59.77 404,151.38 C435.752,182.19 391.48,512.554 416,549.38 C423.431,560.541 435.777,567.863 448.077,572.643 " fill="none" id="escotista-to-login" style="stroke:#181818;stroke-width:1.0;"/><polygon fill="#181818" points="452.962,574.415,445.8665,567.5846,448.2619,572.7093,443.1373,575.1047,452.962,574.415" style="stroke:#181818;stroke-width:1.0;"/></g><!--MD5=[ee54f0eed41f30d944a483e77a7e9ce7]
link escotista to logout--><g id="link_escotista_logout"><path d="M42.4566,543.336 C49.9305,433.531 73.9793,122 108,92.38 C207.224,6 302.499,8.69 404,92.38 C467.711,144.91 482.832,420.361 485.838,497.364 " fill="none" id="escotista-to-logout" style="stroke:#181818;stroke-width:1.0;"/><polygon fill="#181818" points="486.034,502.56,489.6918,493.4156,485.8455,497.5636,481.6975,493.7172,486.034,502.56" style="stroke:#181818;stroke-width:1.0;"/></g><!--MD5=[cd32dfdc0c61f7a74961361b140048e6]
link escotista to dados_ge--><g id="link_escotista_dados_ge"><path d="M45.3768,543.299 C55.1321,479.427 77.5872,354.621 108,323.38 C123.025,307.946 143.26,297.974 163.903,291.553 " fill="none" id="escotista-to-dados_ge" style="stroke:#181818;stroke-width:1.0;"/><polygon fill="#181818" points="168.874,290.076,159.1074,288.8054,164.0811,291.5003,161.3863,296.474,168.874,290.076" style="stroke:#181818;stroke-width:1.0;"/></g><!--MD5=[a6b324f415ee1310b97f1f46b138e560]
link escotista to dados_secao--><g id="link_escotista_dados_secao"><path d="M45.2902,543.237 C52.661,504.442 69.7249,445.219 108,410.38 C131.515,388.976 165.136,378.186 194.292,372.764 " fill="none" id="escotista-to-dados_secao" style="stroke:#181818;stroke-width:1.0;"/><polygon fill="#181818" points="199.304,371.876,189.744,369.5082,194.3807,372.7487,191.1403,377.3854,199.304,371.876" style="stroke:#181818;stroke-width:1.0;"/></g><!--MD5=[c323262122ba1bd084a6e010107b2c40]
link escotista to dados_subsecao--><g id="link_escotista_dados_subsecao"><path d="M72.0526,561.318 C83.368,554.306 96.2089,546.428 108,539.38 C143.788,517.987 184.901,494.288 214.531,477.36 " fill="none" id="escotista-to-dados_subsecao" style="stroke:#181818;stroke-width:1.0;"/><polygon fill="#181818" points="219.185,474.703,209.3857,475.6901,214.8425,477.1814,213.3511,482.6381,219.185,474.703" style="stroke:#181818;stroke-width:1.0;"/></g><!--MD5=[332595020d17a6172ad9ef7b7f129e9e]
link escotista to dados_jovem--><g id="link_escotista_dados_jovem"><path d="M42.6114,543.148 C48.8477,462.977 67.2292,280.995 108,236.38 C129.535,212.815 163.201,201.9 192.884,196.94 " fill="none" id="escotista-to-dados_jovem" style="stroke:#181818;stroke-width:1.0;"/><polygon fill="#181818" points="197.992,196.14,188.4814,193.581,193.0522,196.9138,189.7195,201.4846,197.992,196.14" style="stroke:#181818;stroke-width:1.0;"/></g><!--MD5=[8e1a523088a1a5017fa2a44a8f89922c]
link escotista to timeline_secao--><g id="link_escotista_timeline_secao"><path d="M72.2041,604.217 C83.2052,611.339 95.8141,618.784 108,624.38 C127.423,633.299 149.079,641.041 169.67,647.47 " fill="none" id="escotista-to-timeline_secao" style="stroke:#181818;stroke-width:1.0;"/><polygon fill="#181818" points="174.6,648.991,167.1775,642.5175,169.8218,647.5183,164.8211,650.1626,174.6,648.991" style="stroke:#181818;stroke-width:1.0;"/></g><!--MD5=[11e6afa1a1a3f623f4dfbb88d8a2bf42]
link escotista to timeline_jovem--><g id="link_escotista_timeline_jovem"><path d="M50.6702,619.577 C60.816,649.164 78.9211,689.081 108,713.38 C121.572,724.721 137.969,733.206 154.817,739.554 " fill="none" id="escotista-to-timeline_jovem" style="stroke:#181818;stroke-width:1.0;"/><polygon fill="#181818" points="159.579,741.288,152.4915,734.4493,154.881,739.5768,149.7535,741.9662,159.579,741.288" style="stroke:#181818;stroke-width:1.0;"/></g><!--MD5=[32816bac71ec3794d60f928d066830c2]
link escotista to analise_historica_jovem--><g id="link_escotista_analise_historica_jovem"><path d="M72.1877,581.38 C94.3352,581.38 125.054,581.38 154.993,581.38 " fill="none" id="escotista-to-analise_historica_jovem" style="stroke:#181818;stroke-width:1.0;"/><polygon fill="#181818" points="160.18,581.38,151.18,577.38,155.18,581.38,151.18,585.38,160.18,581.38" style="stroke:#181818;stroke-width:1.0;"/></g><!--MD5=[e4b61ec747a79ee3fc18d54d48f30202]
link escotista to cadastro_atividades--><g id="link_escotista_cadastro_atividades"><path d="M42.5629,619.617 C48.7275,700.282 67.014,884.173 108,929.38 C126.368,949.64 153.643,960.727 179.728,966.739 " fill="none" id="escotista-to-cadastro_atividades" style="stroke:#181818;stroke-width:1.0;"/><polygon fill="#181818" points="184.926,967.875,176.9888,962.0439,180.0415,966.8064,175.2791,969.8591,184.926,967.875" style="stroke:#181818;stroke-width:1.0;"/></g><!--MD5=[60779a6fa2c7b20d9aaadef70c124d9f]
link escotista to cadastro_encontros--><g id="link_escotista_cadastro_encontros"><path d="M40.8984,619.613 C43.9,714.509 56.5472,957.421 108,1016.38 C125.981,1036.984 153.179,1048.139 179.311,1054.11 " fill="none" id="escotista-to-cadastro_encontros" style="stroke:#181818;stroke-width:1.0;"/><polygon fill="#181818" points="184.52,1055.236,176.5691,1049.4236,179.633,1054.1789,174.8778,1057.2428,184.52,1055.236" style="stroke:#181818;stroke-width:1.0;"/></g><!--MD5=[d20bf58bad7e175dccc9c65fbf9d80bb]
link escotista to ferramenta_busca--><g id="link_escotista_ferramenta_busca"><path d="M39.7437,619.665 C39.807,727.646 45.6446,1031.504 108,1104.38 C123.107,1122.0363 145.031,1132.6489 167.356,1138.9692 " fill="none" id="escotista-to-ferramenta_busca" style="stroke:#181818;stroke-width:1.0;"/><polygon fill="#181818" points="172.426,1140.3308,164.7718,1134.1329,167.5972,1139.0337,162.6964,1141.859,172.426,1140.3308" style="stroke:#181818;stroke-width:1.0;"/></g><!--MD5=[5168c43b18685619ee7ce31b73a15522]
link escotista to sistema_pontuacao--><g id="link_escotista_sistema_pontuacao"><path d="M43.3125,619.53 C49.1706,666.788 65.1305,747.619 108,801.38 C131.64,831.026 168.632,852.338 199.592,866.208 " fill="none" id="escotista-to-sistema_pontuacao" style="stroke:#181818;stroke-width:1.0;"/><polygon fill="#181818" points="204.506,868.37,197.8785,861.0846,199.9293,866.3567,194.6572,868.4074,204.506,868.37" style="stroke:#181818;stroke-width:1.0;"/></g><!--MD5=[948d641d1f743c22d2441db6b4e00074]
@startuml
left to right direction
:Escotista: as escotista

package Acesso {
usecase (Login) as login
usecase (Logout) as logout
}
package UE {
usecase (Dados do\nGrupo Escoteiro) as dados_ge
usecase (Dados da\nseção) as dados_secao
usecase (Dados da\nsubseção) as dados_subsecao
usecase (Dados do\njovem) as dados_jovem
}
dados_ge - -|> login
dados_secao - -|> login
dados_subsecao - -|> login
dados_jovem - -|> login

package "Business Inteligence" {
usecase (Timeline de conquistas\nda seção) as timeline_secao
usecase (Timeline de conquistas\ndo jovem) as timeline_jovem
usecase (Análise Histórica\ndo jovem) as analise_historica_jovem
}
timeline_secao - -|> login
timeline_jovem - -|> login
analise_historica_jovem - -|> login

package "Banco de dados de atividades" {
usecase (Cadastro de\natividades) as cadastro_atividades
usecase (Cadastro de\nencontros) as cadastro_encontros
usecase (Ferramenta de\nbusca) as ferramenta_busca
usecase (Sistema de \npontuação) as sistema_pontuacao
}
cadastro_atividades - -|> login
cadastro_encontros - -|> login
ferramenta_busca - -|> login
sistema_pontuacao - -|> login

escotista - -> login
escotista - -> logout

escotista - -> dados_ge
escotista - -> dados_secao
escotista - -> dados_subsecao
escotista - -> dados_jovem

escotista - -> timeline_secao
escotista - -> timeline_jovem
escotista - -> analise_historica_jovem

escotista - -> cadastro_atividades
escotista - -> cadastro_encontros
escotista - -> ferramenta_busca
escotista - -> sistema_pontuacao
@enduml

PlantUML version 1.2022.13beta7(Unknown compile time)
(GPL source distribution)
Java Runtime: Java(TM) SE Runtime Environment
JVM: Java HotSpot(TM) 64-Bit Server VM
Default Encoding: UTF-8
Language: en
Country: US
--></g></svg>